<svg id="Layer_1" data-name="Layer 1" xmlns="http://www.w3.org/2000/svg" viewBox="0 0 64 64"><defs><style>.cls-1{fill:#a1ffce;}</style></defs><title>Artboard 1</title><path class="cls-1" d="M0,32A32,32,0,1,0,32,0,32,32,0,0,0,0,32Zm57.81,0A25.81,25.81,0,1,1,32,6.19,25.82,25.82,0,0,1,57.81,32Zm-9.29-2.58v5.16A1.57,1.57,0,0,1,47,36.13H32v8.64a1.56,1.56,0,0,1-1.54,1.56,1.53,1.53,0,0,1-1.11-.46L16.58,33.1a1.55,1.55,0,0,1,0-2.19h0L29.35,18.13A1.55,1.55,0,0,1,32,19.23v8.64H47A1.57,1.57,0,0,1,48.52,29.42Z"/></svg>