<svg id="Layer_1" data-name="Layer 1" xmlns="http://www.w3.org/2000/svg" viewBox="0 0 64 64"><defs><style>.cls-1{fill:#91dc5a;}</style></defs><title>Artboard 1</title><path class="cls-1" d="M48.71,17.42a5.66,5.66,0,0,0-9.39-4.29,5.57,5.57,0,0,0-7.42,0A5.68,5.68,0,1,0,26,22.67v8.88H45.23V22.67A5.71,5.71,0,0,0,48.71,17.42Z"/><rect class="cls-1" x="25.95" y="34.39" width="19.28" height="2.84"/><path class="cls-1" d="M13-.06a6,6,0,0,0-6,6V50.05a6,6,0,0,0,6,6H29.42v7.89l6-3.56,6,3.56V56.05H54V47.39H57V-.06ZM50.63,52.71h-9.2V50.32h-12v2.39H13a2.66,2.66,0,1,1,0-5.32H50.63Zm3.06-8.65H17.45V3.28H53.69Z"/></svg>