<svg id="Layer_1" data-name="Layer 1" xmlns="http://www.w3.org/2000/svg" viewBox="0 0 64 64"><defs><style>.cls-1{fill:#a1ffce;}</style></defs><title>Artboard 1</title><path class="cls-1" d="M44.73,18.09l10,8.58a.84.84,0,0,1,0,1.31L30.49,48.83l-10.31,1a2.1,2.1,0,0,1-2.39-1.63,1.48,1.48,0,0,1,0-.42l1.14-8.85L43.2,18.09A1.22,1.22,0,0,1,44.73,18.09Zm18-7.79L57.31,4.88a4.34,4.34,0,0,0-6.13,0L47.24,8.81a1.09,1.09,0,0,0,0,1.53l10,10a1.09,1.09,0,0,0,1.53,0L62.7,16.4A4.34,4.34,0,0,0,62.73,10.3ZM42.67,42.07V53.38H7.11V17.82H32.64a1.39,1.39,0,0,0,1-.39L38,13a1.33,1.33,0,0,0-.94-2.28H5.33A5.34,5.34,0,0,0,0,16V55.16a5.33,5.33,0,0,0,5.33,5.33H44.44a5.34,5.34,0,0,0,5.34-5.33V37.62a1.33,1.33,0,0,0-2.28-.94l-4.44,4.44A1.34,1.34,0,0,0,42.67,42.07Z"/></svg>