<svg id="Layer_1" data-name="Layer 1" xmlns="http://www.w3.org/2000/svg" viewBox="0 0 64 64"><defs><style>.cls-1{fill:#91dc5a;}</style></defs><title>Artboard 1</title><path class="cls-1" d="M32,5A27,27,0,0,0,21.24,56.74l.35-6.81c0-5.42-4-3.69-4-7.48,0-2.12.07-6.55.07-9.87,0-8.86,3.76-17.43,4.68-19.34s3.12-4,3.14-2c0,2.91.13,36.75.13,36.75h0L26,58.29a26.9,26.9,0,0,0,6,.7,28.06,28.06,0,0,0,3.33-.23l.9-17.3A8.63,8.63,0,0,1,31,37.82c-1.46-2.19,1.12-21.53,1.12-21.53h1.68V34.44h1.67V16.29h1.82V34.44h1.66V16.29h1.9V34.44h1.66V16.29h1.29s2.58,19.34,1.12,21.53a8.69,8.69,0,0,1-5.2,3.63l-.08,0,.85,16.14A27,27,0,0,0,32,5Z"/><path class="cls-1" d="M32,0A32,32,0,1,0,64,32,32,32,0,0,0,32,0Zm0,61.61A29.62,29.62,0,1,1,61.62,32,29.64,29.64,0,0,1,32,61.61Z"/></svg>