<svg id="Layer_1" data-name="Layer 1" xmlns="http://www.w3.org/2000/svg" viewBox="0 0 64 64"><defs><style>.cls-1{fill:#14cc1a;}</style></defs><title>Artboard 1</title><path class="cls-1" d="M62.25,17.82l-5.76,5.76a1.5,1.5,0,0,1-2.13,0L40.49,9.71a1.5,1.5,0,0,1,0-2.13l5.76-5.76a6,6,0,0,1,8.49,0l7.51,7.51A6,6,0,0,1,62.25,17.82ZM35.54,12.53,2.71,45.36.06,60.55A3,3,0,0,0,3.53,64l15.19-2.66L51.55,28.53a1.49,1.49,0,0,0,0-2.12L37.67,12.53a1.5,1.5,0,0,0-2.13,0Zm-20,30a1.73,1.73,0,0,1,0-2.47L34.77,20.82a1.75,1.75,0,1,1,2.48,2.47L18,42.54a1.74,1.74,0,0,1-2.48,0ZM11,53.06h6V57.6L9,59,5.06,55.12l1.41-8.06H11Z"/></svg>