<svg id="Layer_1" data-name="Layer 1" xmlns="http://www.w3.org/2000/svg" viewBox="0 0 64 64"><defs><style>.cls-1{fill:#14b6cc;}</style></defs><title>Artboard 1</title><path class="cls-1" d="M32,0A32,32,0,1,0,64,32,32,32,0,0,0,32,0ZM50.58,35.61A1.56,1.56,0,0,1,49,37.16H37.16V49a1.56,1.56,0,0,1-1.55,1.55H28.39A1.56,1.56,0,0,1,26.84,49V37.16H15a1.56,1.56,0,0,1-1.55-1.55V28.39A1.56,1.56,0,0,1,15,26.84H26.84V15a1.56,1.56,0,0,1,1.55-1.55h7.22A1.56,1.56,0,0,1,37.16,15V26.84H49a1.56,1.56,0,0,1,1.55,1.55Z"/></svg>