<svg viewBox="0 0 64 64" xmlns="http://www.w3.org/2000/svg"><g fill="#91dc5a"><path d="m29.29 18.06c.06.25.16.43.28.43h4.17c.11 0 .22-.18.27-.44a5.23 5.23 0 0 0 3.46-5h-11.64a5.26 5.26 0 0 0 3.46 5.01z"/><path d="m38.21 9.39-.74-.59-3.64 3.64h1.33z"/><path d="m14.11 37.5h25.5a.59.59 0 0 0 0-1.17h-25.5a.59.59 0 1 0 0 1.17z"/><path d="m14.11 35h25.5a.59.59 0 0 0 0-1.18h-25.5a.59.59 0 0 0 0 1.18z"/><path d="m14.11 32.47h25.5a.59.59 0 0 0 0-1.17h-25.5a.59.59 0 1 0 0 1.17z"/><path d="m14.11 30h25.5a.59.59 0 0 0 0-1.17h-25.5a.59.59 0 1 0 0 1.17z"/><path d="m14.11 27.44h25.5a.59.59 0 0 0 0-1.17h-25.5a.59.59 0 1 0 0 1.17z"/><path d="m14.11 24.92h25.5a.59.59 0 0 0 0-1.17h-25.5a.59.59 0 1 0 0 1.17z"/><path d="m14.11 22.41h25.5a.59.59 0 0 0 0-1.17h-25.5a.59.59 0 1 0 0 1.17z"/><path d="m57.46 39.25 5.79-8.45a2.59 2.59 0 0 0 -.61-3.62 2.67 2.67 0 0 0 -3.62.6l-7.44 10.44c-1.71-.2-3.54-.34-5.45-.42h.8v-28.8a5.8 5.8 0 0 0 -5.58-6l-18.63-.08a3.74 3.74 0 0 0 -2 .65l-13.28 13.32a3.7 3.7 0 0 0 -.66 1.79v25.16a9.34 9.34 0 0 0 -3.51 1.45 5.54 5.54 0 0 0 -2.54 4.51c0 3.38 3.59 6 8.09 6h.11a7.81 7.81 0 0 0 4.14-1.09c.69 3.45 2.88 5.52 5.95 5.52a6 6 0 0 0 1.11-.1 5.84 5.84 0 0 0 4-2.44 6.79 6.79 0 0 0 1-4.3h1.19c3.11 3.56 8.1 6.86 16 7.13h1c8.19 0 13-3.67 15.65-6.81 3.05-3.66 4.36-8 4.35-9.88a.38.38 0 0 0 0-.1c.02-2.51-3.06-3.73-5.86-4.48zm3.12-10.35a.68.68 0 0 1 .56-.29.64.64 0 0 1 .39.13.69.69 0 0 1 .15 1l-10.86 15.81a2.63 2.63 0 0 0 -.56-.05 10 10 0 0 0 -1.31.12h-.32zm-41.16-20.23v4.33c0 1.67-1.66 3-3.69 3h-3.73zm-10.51 44.33h-.09c-2.82 0-5.19-1.51-5.21-3.23a2.79 2.79 0 0 1 1.33-2.14 7.15 7.15 0 0 1 4-1.15c2.51 0 3.9 1.14 3.92 3.2s-1.39 3.25-3.95 3.32zm12.85 3.14a3.07 3.07 0 0 1 -2.09 1.23 3.63 3.63 0 0 1 -.65 0c-2.16 0-2.93-1.87-3.19-3.45a7 7 0 0 1 .46-4.05 2.82 2.82 0 0 1 1.88-1.67 1.53 1.53 0 0 1 .3 0c1.43 0 3.27 1.8 3.74 4.7a4.38 4.38 0 0 1 -.45 3.19zm-4.06-10.78a5 5 0 0 0 -2.7 1.4 6.08 6.08 0 0 0 -4.57-3v-25.15h5.63a5.8 5.8 0 0 0 6-5.58v-6.37h19.29a2.15 2.15 0 0 1 1.91 2.34v28.72h.45-1.29a69.92 69.92 0 0 0 -13.22 1.12h-15.09a.59.59 0 0 0 -.59.59.58.58 0 0 0 .59.58h10.89a8.07 8.07 0 0 0 -2.3 1.35h-8.59a.59.59 0 1 0 0 1.17h7.67a2.79 2.79 0 0 0 -.28 1.24.34.34 0 0 0 0 .1h-7.4a.59.59 0 0 0 -.59.59.58.58 0 0 0 .59.58h7.66a19.79 19.79 0 0 0 .74 2.1 5.49 5.49 0 0 0 -4.8-1.78zm8.23-1.59c2-1 7.69-2.23 16.49-2.23 2.45 0 4.64.11 6.6.27l-2.87 4v.08c-1.16.05-2.38.08-3.68.08-8.85.03-14.47-1.25-16.54-2.2zm16.55 12.94c-8.63-.3-13-4.77-15.22-8.46.45.12.89.23 1.31.32a68.31 68.31 0 0 0 13.85 1.25 68.28 68.28 0 0 0 13.84-1.25c.59-.13 1.21-.28 1.83-.46-1.89 3.89-6.19 8.94-15.61 8.6zm10.9-11.5 1.75-2.56a17.74 17.74 0 0 1 3.77 1.12 23.44 23.44 0 0 1 -5.52 1.44z"/></g></svg>