<svg id="Layer_1" data-name="Layer 1" xmlns="http://www.w3.org/2000/svg" viewBox="0 0 64 64"><defs><style>.cls-1{fill:#14cc1a;}</style></defs><title>Artboard 1</title><path class="cls-1" d="M62,14,50,2a6.85,6.85,0,0,0-4.85-2H6.86A6.86,6.86,0,0,0,0,6.86V57.14A6.86,6.86,0,0,0,6.86,64H57.14A6.86,6.86,0,0,0,64,57.14V18.84A6.85,6.85,0,0,0,62,14ZM38.86,6.86V18.29H20.57V6.86ZM56.29,57.14H7.71a.85.85,0,0,1-.85-.85V7.71a.85.85,0,0,1,.85-.85h6V21.71a3.43,3.43,0,0,0,3.43,3.43H42.29a3.42,3.42,0,0,0,3.42-3.43V7.41L56.89,18.59a.86.86,0,0,1,.25.61V56.29a.85.85,0,0,1-.85.85ZM32,28.57A12.57,12.57,0,1,0,44.57,41.14,12.59,12.59,0,0,0,32,28.57Zm0,18.29a5.72,5.72,0,1,1,5.71-5.72A5.72,5.72,0,0,1,32,46.86Z"/></svg>