<svg id="Layer_1" data-name="Layer 1" xmlns="http://www.w3.org/2000/svg" viewBox="0 0 64 64"><defs><style>.cls-1{fill:#ff0039;}</style></defs><title>Artboard 1</title><path class="cls-1" d="M32,0A32,32,0,1,0,64,32,32,32,0,0,0,32,0ZM47.69,40.4a1.54,1.54,0,0,1,0,2.19l-5.11,5.1a1.54,1.54,0,0,1-2.19,0L32,39.23l-8.4,8.46a1.54,1.54,0,0,1-2.19,0l-5.1-5.11a1.54,1.54,0,0,1,0-2.19L24.77,32l-8.46-8.4a1.54,1.54,0,0,1,0-2.19l5.11-5.11a1.54,1.54,0,0,1,2.19,0L32,24.77l8.4-8.46a1.54,1.54,0,0,1,2.19,0l5.11,5.11a1.54,1.54,0,0,1,0,2.19L39.23,32Z"/></svg>