<svg id="Layer_1" data-name="Layer 1" xmlns="http://www.w3.org/2000/svg" viewBox="0 0 64 64"><defs><style>.cls-1{fill:#ff0039;}</style></defs><title>Artboard 1</title><path class="cls-1" d="M4,10.5V7A3,3,0,0,1,7,4H21l1.17-2.34A3,3,0,0,1,24.85,0H39.14a3,3,0,0,1,2.68,1.66L43,4H57a3,3,0,0,1,3,3v3.5A1.5,1.5,0,0,1,58.5,12H5.5A1.51,1.51,0,0,1,4,10.5Zm52,7V58a6,6,0,0,1-6,6H14a6,6,0,0,1-6-6V17.5A1.5,1.5,0,0,1,9.5,16h45A1.5,1.5,0,0,1,56,17.5ZM22,26a2,2,0,0,0-4,0V54a2,2,0,0,0,4,0Zm12,0a2,2,0,0,0-4,0V54a2,2,0,0,0,4,0Zm12,0a2,2,0,0,0-4,0V54a2,2,0,0,0,4,0Z"/></svg>